<svg xmlns="http://www.w3.org/2000/svg" width="22" height="50" viewBox="0 0 22 50"><g><g><path fill="#81a413" d="M21.996 11.064l-.035 28.786c0 .032-.002.066-.005.098a11.092 11.092 0 0 1-5.48 8.579 10.89 10.89 0 0 1-5.47 1.472c-6.064-.001-10.998-4.964-11-11.062L.004 25v-.004-.003L0 11.056C0 7.123 2.117 3.45 5.526 1.473A10.9 10.9 0 0 1 10.996 0c2.932 0 5.695 1.157 7.78 3.257a10.993 10.993 0 0 1 3.22 7.806zm-2.209 15.04l-14.855-.005H2.194l.002 12.839c.002 4.884 3.953 8.857 8.81 8.859a8.713 8.713 0 0 0 4.375-1.178 8.89 8.89 0 0 0 4.39-6.824zm-2.56-21.29A8.73 8.73 0 0 0 6.62 3.38a8.903 8.903 0 0 0-4.43 7.675l.002 12.84h1.643l2.19.001 13.764.005.016-12.841a8.798 8.798 0 0 0-2.58-6.247z"/></g></g></svg>