<svg xmlns="http://www.w3.org/2000/svg" width="30" height="30" viewBox="0 0 30 30"><g><g><path fill="#81a413" d="M13 25v4.5a.5.5 0 0 1-.5.5h-7a.5.5 0 0 1-.5-.5v-1.87L.567 19.65A4.517 4.517 0 0 1 0 17.463V8a2.001 2.001 0 0 1 4 0v6.559c.68-.175 1.4.047 1.865.574l3.454 3.837a7.422 7.422 0 0 1 3.67 6.03zm-1 .362a6.409 6.409 0 0 0-3.221-5.55.69.69 0 0 1-.15-.116l-3.507-3.895c-.01-.011-.022-.025-.034-.036a.908.908 0 0 0-1.315 1.255l4.097 4.507-.74.672-4.096-4.506A1.9 1.9 0 0 1 3 15.177V8a1 1 0 0 0-2 0v9.463c0 .595.152 1.18.44 1.7l4.497 8.094A.503.503 0 0 1 6 27.5V29h6zM30 8v9.411c0 .802-.215 1.59-.621 2.282L25 27.629V29.5a.5.5 0 0 1-.5.5h-7a.5.5 0 0 1-.5-.5V25h.012a7.406 7.406 0 0 1 3.67-6.032l3.453-3.836a1.888 1.888 0 0 1 1.37-.632 1.95 1.95 0 0 1 .495.059V8a2.001 2.001 0 0 1 4 0zm-1 9.411V8a1 1 0 0 0-2 0v7.177a1.9 1.9 0 0 1-.033 2.517l-4.097 4.505-.74-.673 4.098-4.506a.91.91 0 0 0-1.35-1.22l-3.506 3.9a.52.52 0 0 1-.125.1A6.418 6.418 0 0 0 18 25.362v3.639h6v-1.5c0-.085.02-.168.06-.243l4.45-8.06c.32-.542.49-1.158.49-1.787zM21.5 13a5.506 5.506 0 0 1-5.5 5.5h-.5V22.5h-1v-4H14A5.506 5.506 0 0 1 8.5 13a.5.5 0 0 1 .5-.5h1a5.497 5.497 0 0 1 4.5 2.35V11.5H14A5.507 5.507 0 0 1 8.5 6a.5.5 0 0 1 .5-.5h1a5.494 5.494 0 0 1 4.5 2.35V4.5H14a4.005 4.005 0 0 1-4-4 .5.5 0 0 1 .5-.5h1c1.456 0 2.797.792 3.5 2.067A3.999 3.999 0 0 1 18.5 0h1a.5.5 0 0 1 .5.502A4.005 4.005 0 0 1 16 4.5h-.5v3.35A5.494 5.494 0 0 1 20 5.5h1a.5.5 0 0 1 .5.5 5.507 5.507 0 0 1-5.5 5.5h-.5v3.35A5.496 5.496 0 0 1 20 12.5h1a.5.5 0 0 1 .5.5zm-5.973-2.5H16a4.506 4.506 0 0 0 4.473-4H20a4.507 4.507 0 0 0-4.473 4zm.014-7H16a3.005 3.005 0 0 0 2.959-2.498H18.5a3.004 3.004 0 0 0-2.959 2.498zm-1.083 0A3.004 3.004 0 0 0 11.5 1.001h-.458A3.005 3.005 0 0 0 14 3.499zm.015 7A4.507 4.507 0 0 0 10 6.5h-.472a4.506 4.506 0 0 0 4.472 4zm0 7.001a4.506 4.506 0 0 0-4.473-4h-.472a4.507 4.507 0 0 0 4.472 4zm6-4H20a4.505 4.505 0 0 0-4.473 4H16a4.507 4.507 0 0 0 4.473-4z"/></g></g></svg>