<svg xmlns="http://www.w3.org/2000/svg" width="30" height="28" viewBox="0 0 30 28"><g><g><path fill="#81a413" d="M4.5 11.185c0-.28.223-.508.5-.508h6.5c.277 0 .5.228.5.508s-.223.509-.5.509H5a.505.505 0 0 1-.5-.509zm14 3.051c0 .28-.224.509-.5.509H5a.504.504 0 0 1-.5-.509c0-.281.223-.51.5-.51h13c.276 0 .5.229.5.51zm0 3.05c0 .28-.224.508-.5.508H5a.503.503 0 0 1-.5-.507c0-.282.223-.51.5-.51h13c.276 0 .5.228.5.51zM30 3.052V13.8c0 1.662-1.33 3.013-2.965 3.013H26.5V21.9a.507.507 0 0 1-.5.509.498.498 0 0 1-.37-.168L23 19.298v.059c0 1.661-1.33 3.014-2.965 3.014l-8.313.035-4.852 5.428a.497.497 0 0 1-.55.13.506.506 0 0 1-.32-.472v-5.085H2.965C1.33 22.407 0 21.055 0 19.392V8.644C0 6.98 1.33 5.628 2.965 5.628L7 5.62V3.015C7 1.352 8.33 0 9.965 0l17.071.036C28.671.035 30 1.39 30 3.051zm-8 5.556c0-1.102-.881-1.998-1.965-1.998l-12.534.026-4.535.01C1.881 6.645 1 7.541 1 8.644v10.748c0 1.101.881 1.997 1.965 1.997H6.5c.276 0 .5.228.5.508v4.278l4.13-4.62a.496.496 0 0 1 .368-.166l8.535-.036c1.086 0 1.967-.895 1.967-1.996zm7 5.192V3.051c0-1.102-.88-1.999-1.965-1.999l-17.07-.036C8.881 1.016 8 1.912 8 3.015v2.603l12.034-.024C21.67 5.594 23 6.945 23 8.607v9.18l2.5 2.796v-4.278c0-.28.224-.509.5-.509h1.035C28.12 15.796 29 14.9 29 13.8z"/></g></g></svg>