<svg xmlns="http://www.w3.org/2000/svg" width="28" height="30" viewBox="0 0 28 30"><g><g><path fill="#81a413" d="M27.417 30H.577C.112 27.992-1 18.142 9.612 14.563c-1.754-2.055-2.849-5.044-2.849-7.305 0-4.005 3.243-7.259 7.234-7.259 3.99 0 7.234 3.254 7.234 7.259 0 2.261-1.095 5.25-2.849 7.305C24.809 16.446 29 23.119 27.417 30zM7.929 5.71l1.46-1.028a5.07 5.07 0 0 1 5.462-.23s2.442 1.86 4.85.213A6.26 6.26 0 0 0 13.996.968c-2.925 0-5.38 2.025-6.068 4.743zm6.068 10.252c3.46 0 6.268-5.275 6.268-8.71 0-.575-.088-1.13-.23-1.655-2.983 1.754-5.673-.313-5.673-.313a4.106 4.106 0 0 0-4.42.19L7.74 7.026c-.005.078-.011.153-.011.231 0 3.436 2.807 8.705 6.268 8.705zm8.546 1.906a13.702 13.702 0 0 1-1.412 3.473 1.934 1.934 0 0 1-1.354 3.313 1.934 1.934 0 0 1-1.93-1.936c0-1.07.865-1.937 1.93-1.937.182 0 .353.035.518.082a12.595 12.595 0 0 0 1.412-3.644 11.974 11.974 0 0 0-4.102-1.884c-1.054.963-2.278 1.577-3.614 1.577-1.336 0-2.56-.614-3.614-1.577a12.19 12.19 0 0 0-3.572 1.524c.158 1.435.559 2.816 1.183 4.116a3.852 3.852 0 0 1 4.82 2.398l.8 2.285-1.818.644-.318-.916.912-.318-.476-1.37a2.896 2.896 0 0 0-3.69-1.777 2.908 2.908 0 0 0-1.772 3.702l.482 1.37.912-.32.318.916-1.818.644-.8-2.28a3.88 3.88 0 0 1 1.582-4.553 13.767 13.767 0 0 1-1.2-3.903C2.508 20.126.654 24.49 1.384 29.03h25.232c.689-4.31-.96-8.474-4.073-11.162zm-2.76 3.904a.967.967 0 0 0 0 1.937c.53 0 .965-.437.965-.968a.967.967 0 0 0-.965-.969z"/></g></g></svg>